<?xml version="1.0" encoding="utf-8" standalone="no"?>
<!DOCTYPE svg PUBLIC "-//W3C//DTD SVG 1.1//EN"
  "http://www.w3.org/Graphics/SVG/1.1/DTD/svg11.dtd">
<!-- Created with matplotlib (http://matplotlib.org/) -->
<svg height="288pt" version="1.1" viewBox="0 0 432 288" width="432pt" xmlns="http://www.w3.org/2000/svg" xmlns:xlink="http://www.w3.org/1999/xlink">
 <defs>
  <style type="text/css">
*{stroke-linecap:butt;stroke-linejoin:round;}
  </style>
 </defs>
 <g id="figure_1">
  <g id="patch_1">
   <path d="M 0 288 
L 432 288 
L 432 0 
L 0 0 
z
" style="fill:#ffffff;"/>
  </g>
  <g id="axes_1">
   <g id="patch_2">
    <path d="M 54 252 
L 388.8 252 
L 388.8 34.56 
L 54 34.56 
z
" style="fill:#ffffff;"/>
   </g>
   <g id="patch_3">
    <path clip-path="url(#p3c4fc1486f)" d="M 224.0784 224.82 
L 230.7744 222.102 
L 230.7744 224.2764 
L 237.4704 224.2764 
L 237.4704 225.3636 
L 230.7744 225.3636 
L 230.7744 227.538 
z
" style="stroke:#000000;stroke-linejoin:miter;"/>
   </g>
   <g id="patch_4">
    <path clip-path="url(#p3c4fc1486f)" d="M 118.2816 235.692 
L 124.9776 232.974 
L 124.9776 235.1484 
L 131.6736 235.1484 
L 131.6736 236.2356 
L 124.9776 236.2356 
L 124.9776 238.41 
z
" style="stroke:#000000;stroke-linejoin:miter;"/>
   </g>
   <g id="patch_5">
    <path clip-path="url(#p3c4fc1486f)" d="M 104.8896 224.82 
L 98.1936 227.538 
L 98.1936 225.3636 
L 91.4976 225.3636 
L 91.4976 224.2764 
L 98.1936 224.2764 
L 98.1936 222.102 
z
" style="stroke:#000000;stroke-linejoin:miter;"/>
   </g>
   <g id="patch_6">
    <path clip-path="url(#p3c4fc1486f)" d="M 208.008 213.948 
L 201.312 216.666 
L 201.312 214.4916 
L 187.92 214.4916 
L 187.92 213.4044 
L 201.312 213.4044 
L 201.312 211.23 
z
" style="stroke:#000000;stroke-linejoin:miter;"/>
   </g>
   <g id="matplotlib.axis_1">
    <g id="xtick_1"/>
    <g id="xtick_2"/>
    <g id="xtick_3"/>
    <g id="xtick_4"/>
    <g id="xtick_5"/>
    <g id="xtick_6"/>
   </g>
   <g id="matplotlib.axis_2">
    <g id="ytick_1"/>
    <g id="ytick_2"/>
    <g id="ytick_3"/>
    <g id="ytick_4"/>
    <g id="ytick_5"/>
    <g id="ytick_6"/>
    <g id="ytick_7"/>
    <g id="ytick_8"/>
    <g id="ytick_9"/>
   </g>
   <g id="line2d_1">
    <path clip-path="url(#p3c4fc1486f)" d="M 82.955676 251.712286 
L 356.456686 -1 
L 356.456686 -1 
" style="fill:none;stroke:#000000;stroke-linecap:square;stroke-width:3;"/>
   </g>
   <g id="line2d_2">
    <path clip-path="url(#p3c4fc1486f)" d="M 191.807568 251.963636 
L 199.314595 238.823695 
L 205.749189 228.129395 
L 210.038919 221.362389 
L 215.937297 212.567593 
L 222.371892 203.416434 
L 227.734054 196.101031 
L 233.096216 189.025404 
L 238.458378 182.151318 
L 244.892973 174.112197 
L 251.327568 166.275343 
L 258.834595 157.332633 
L 267.95027 146.732519 
L 283.500541 129.109962 
L 302.804324 107.873882 
L 319.427027 90.011947 
L 339.267027 69.026161 
L 362.860541 44.512813 
L 386.454054 20.304571 
L 405.221622 1.255073 
L 407.450057 -1 
L 407.450057 -1 
" style="fill:none;stroke:#000000;stroke-dasharray:11.1,4.8;stroke-dashoffset:0;stroke-width:3;"/>
   </g>
   <g id="line2d_3">
    <path clip-path="url(#p3c4fc1486f)" d="M 101.187027 251.666373 
L 107.085405 242.740096 
L 110.302703 238.173644 
L 112.983784 234.553057 
L 116.737297 229.736065 
L 121.027027 224.564271 
L 125.316757 219.673545 
L 130.678919 213.832022 
L 136.577297 207.641962 
L 148.374054 195.706842 
L 162.851892 181.500235 
L 180.010811 164.993699 
L 199.850811 146.157602 
L 237.385946 110.882296 
L 288.862703 62.854949 
L 357.594233 -1 
L 357.594233 -1 
" style="fill:none;stroke:#000000;stroke-linecap:square;stroke-width:1.5;"/>
   </g>
   <g id="line2d_4">
    <path clip-path="url(#p3c4fc1486f)" d="M 210.575135 250.843492 
L 218.082162 232.304897 
L 222.908108 221.329273 
L 227.734054 211.325858 
L 231.487568 204.107012 
L 236.313514 195.613684 
L 240.603243 188.656054 
L 245.965405 180.615779 
L 251.863784 172.323467 
L 257.762162 164.431899 
L 264.196757 156.16783 
L 271.167568 147.524746 
L 278.138378 139.133081 
L 286.181622 129.686022 
L 294.761081 119.832781 
L 303.340541 110.168767 
L 312.992432 99.473377 
L 323.716757 87.769357 
L 343.020541 67.102478 
L 360.179459 49.024536 
L 390.207568 17.949038 
L 408.77059 -1 
L 408.77059 -1 
" style="fill:none;stroke:#000000;stroke-dasharray:5.55,2.4;stroke-dashoffset:0;stroke-width:1.5;"/>
   </g>
   <g id="line2d_5">
    <path clip-path="url(#p3c4fc1486f)" d="M 187.92 252 
L 187.92 34.56 
" style="fill:none;stroke:#000000;stroke-dasharray:1.5,2.475;stroke-dashoffset:0;stroke-width:1.5;"/>
   </g>
   <g id="patch_7">
    <path d="M 54 252 
L 54 34.56 
" style="fill:none;stroke:#000000;stroke-linecap:square;stroke-linejoin:miter;stroke-width:0.8;"/>
   </g>
   <g id="patch_8">
    <path d="M 388.8 252 
L 388.8 34.56 
" style="fill:none;stroke:#000000;stroke-linecap:square;stroke-linejoin:miter;stroke-width:0.8;"/>
   </g>
   <g id="patch_9">
    <path d="M 54 252 
L 388.8 252 
" style="fill:none;stroke:#000000;stroke-linecap:square;stroke-linejoin:miter;stroke-width:0.8;"/>
   </g>
   <g id="patch_10">
    <path d="M 54 34.56 
L 388.8 34.56 
" style="fill:none;stroke:#000000;stroke-linecap:square;stroke-linejoin:miter;stroke-width:0.8;"/>
   </g>
   <g id="text_1">
    <!-- $c$ -->
    <defs>
     <path d="M 39.09375 37.984375 
C 37.203125 37.984375 36.296875 37.984375 34.90625 36.796875 
C 34.296875 36.296875 33.203125 34.796875 33.203125 33.203125 
C 33.203125 31.203125 34.703125 30 36.59375 30 
C 39 30 41.703125 31.9375 41.703125 35.8125 
C 41.703125 40.4375 37.09375 44 30.203125 44 
C 17.09375 44 4 29.734375 4 15.5625 
C 4 6.890625 9.40625 -1 19.59375 -1 
C 33.203125 -1 41.796875 9.71875 41.796875 11.03125 
C 41.796875 11.625 41.203125 12.125 40.796875 12.125 
C 40.5 12.125 40.40625 12.03125 39.5 11.140625 
C 33.09375 2.53125 23.59375 1 19.796875 1 
C 12.90625 1 10.703125 6.96875 10.703125 11.9375 
C 10.703125 15.4375 12.40625 25.078125 16 31.859375 
C 18.59375 36.53125 24 41.90625 30.296875 41.90625 
C 31.59375 41.90625 37.09375 41.90625 39.09375 37.984375 
z
" id="CMMI12-99"/>
    </defs>
    <g transform="translate(33.912 29.124)scale(0.14 -0.14)">
     <use transform="scale(0.996264)" xlink:href="#CMMI12-99"/>
    </g>
   </g>
   <g id="text_2">
    <!-- ${m}$ -->
    <defs>
     <path d="M 20.59375 29.234375 
C 20.796875 29.84375 23.296875 34.828125 27 38.015625 
C 29.59375 40.40625 33 42.015625 36.90625 42.015625 
C 40.90625 42.015625 42.296875 39.015625 42.296875 35.03125 
C 42.296875 34.421875 42.296875 32.4375 41.09375 27.734375 
L 38.59375 17.46875 
C 37.796875 14.46875 35.90625 7.078125 35.703125 5.984375 
C 35.296875 4.484375 34.703125 1.890625 34.703125 1.5 
C 34.703125 0.09375 35.796875 -1 37.296875 -1 
C 40.296875 -1 40.796875 1.296875 41.703125 4.890625 
L 47.703125 28.734375 
C 47.90625 29.53125 53.09375 42.015625 64.09375 42.015625 
C 68.09375 42.015625 69.5 39.015625 69.5 35.03125 
C 69.5 29.4375 65.59375 18.5625 63.40625 12.578125 
C 62.5 10.171875 62 8.875 62 7.078125 
C 62 2.59375 65.09375 -1 69.90625 -1 
C 79.203125 -1 82.703125 13.671875 82.703125 14.265625 
C 82.703125 14.765625 82.296875 15.171875 81.703125 15.171875 
C 80.796875 15.171875 80.703125 14.875 80.203125 13.171875 
C 77.90625 5.1875 74.203125 1 70.203125 1 
C 69.203125 1 67.59375 1 67.59375 4.203125 
C 67.59375 6.8125 68.796875 10 69.203125 11.09375 
C 71 15.90625 75.5 27.703125 75.5 33.515625 
C 75.5 39.5 72 44 64.40625 44 
C 57.703125 44 52.296875 40.21875 48.296875 34.328125 
C 48 39.71875 44.703125 44 37.203125 44 
C 28.296875 44 23.59375 37.734375 21.796875 35.234375 
C 21.5 40.90625 17.40625 44 13 44 
C 10.09375 44 7.796875 42.609375 5.90625 38.8125 
C 4.09375 35.21875 2.703125 29.140625 2.703125 28.734375 
C 2.703125 28.34375 3.09375 27.84375 3.796875 27.84375 
C 4.59375 27.84375 4.703125 27.9375 5.296875 30.234375 
C 6.796875 36.125 8.703125 42.015625 12.703125 42.015625 
C 15 42.015625 15.796875 40.40625 15.796875 37.421875 
C 15.796875 35.21875 14.796875 31.328125 14.09375 28.234375 
L 11.296875 17.46875 
C 10.90625 15.5625 9.796875 11.078125 9.296875 9.28125 
C 8.59375 6.6875 7.5 2 7.5 1.5 
C 7.5 0.09375 8.59375 -1 10.09375 -1 
C 11.296875 -1 12.703125 -0.40625 13.5 1.09375 
C 13.703125 1.59375 14.59375 5.09375 15.09375 7.078125 
L 17.296875 16.0625 
z
" id="CMMI12-109"/>
    </defs>
    <g transform="translate(382.104 273.744)scale(0.14 -0.14)">
     <use transform="scale(0.996264)" xlink:href="#CMMI12-109"/>
    </g>
   </g>
   <g id="text_3">
    <!-- ${c}^{0}_{t-1,0}$ -->
    <defs>
     <path d="M 42 31.640625 
C 42 37.75 41.90625 48.125 37.703125 56.109375 
C 34 63.109375 28.09375 65.59375 22.90625 65.59375 
C 18.09375 65.59375 12 63.40625 8.203125 56.203125 
C 4.203125 48.71875 3.796875 39.4375 3.796875 31.640625 
C 3.796875 25.953125 3.90625 17.28125 7 9.671875 
C 11.296875 -0.609375 19 -2 22.90625 -2 
C 27.5 -2 34.5 -0.109375 38.59375 9.375 
C 41.59375 16.28125 42 24.359375 42 31.640625 
z
M 22.90625 -0.40625 
C 16.5 -0.40625 12.703125 5.078125 11.296875 12.6875 
C 10.203125 18.5625 10.203125 27.15625 10.203125 32.75 
C 10.203125 40.4375 10.203125 46.828125 11.5 52.921875 
C 13.40625 61.390625 19 64 22.90625 64 
C 27 64 32.296875 61.296875 34.203125 53.125 
C 35.5 47.4375 35.59375 40.734375 35.59375 32.75 
C 35.59375 26.25 35.59375 18.265625 34.40625 12.375 
C 32.296875 1.484375 26.40625 -0.40625 22.90625 -0.40625 
z
" id="CMR17-48"/>
     <path d="M 20.09375 40.09375 
L 29.296875 40.09375 
C 31.203125 40.09375 32.203125 40.09375 32.203125 41.890625 
C 32.203125 43 31.59375 43 29.59375 43 
L 20.796875 43 
L 24.5 57.6875 
C 24.90625 59.078125 24.90625 59.28125 24.90625 60 
C 24.90625 61.609375 23.59375 62.5 22.296875 62.5 
C 21.5 62.5 19.203125 62.203125 18.40625 58.984375 
L 14.5 43 
L 5.09375 43 
C 3.09375 43 2.203125 43 2.203125 41.09375 
C 2.203125 40.09375 2.90625 40.09375 4.796875 40.09375 
L 13.703125 40.09375 
L 7.09375 13.765625 
C 6.296875 10.28125 6 9.28125 6 7.984375 
C 6 3.296875 9.296875 -1 14.90625 -1 
C 25 -1 30.40625 13.5625 30.40625 14.25 
C 30.40625 14.859375 30 15.15625 29.40625 15.15625 
C 29.203125 15.15625 28.796875 15.15625 28.59375 14.75 
C 28.5 14.65625 28.40625 14.546875 27.703125 12.953125 
C 25.59375 7.984375 21 1 15.203125 1 
C 12.203125 1 12 3.5 12 5.6875 
C 12 5.78125 12 7.6875 12.296875 8.875 
z
" id="CMMI12-116"/>
     <path d="M 65.90625 23 
C 67.59375 23 69.40625 23 69.40625 25 
C 69.40625 27 67.59375 27 65.90625 27 
L 11.796875 27 
C 10.09375 27 8.296875 27 8.296875 25 
C 8.296875 23 10.09375 23 11.796875 23 
z
" id="CMSY10-0"/>
     <path d="M 26.59375 63.40625 
C 26.59375 65.5 26.5 65.5 25.09375 65.5 
C 21.203125 61.1875 15.296875 59.796875 9.703125 59.796875 
C 9.40625 59.796875 8.90625 59.796875 8.796875 59.5 
C 8.703125 59.296875 8.703125 59.09375 8.703125 57 
C 11.796875 57 17 57.59375 21 59.984375 
L 21 7.203125 
C 21 3.6875 20.796875 2.5 12.203125 2.5 
L 9.203125 2.5 
L 9.203125 0 
C 14 0 19 0 23.796875 0 
C 28.59375 0 33.59375 0 38.40625 0 
L 38.40625 2.5 
L 35.40625 2.5 
C 26.796875 2.5 26.59375 3.59375 26.59375 7.15625 
z
" id="CMR17-49"/>
     <path d="M 19.5 -0.484375 
C 19.5 5.359375 17.59375 9.671875 13.5 9.671875 
C 10.296875 9.671875 8.703125 7.078125 8.703125 4.890625 
C 8.703125 2.6875 10.203125 0 13.59375 0 
C 14.90625 0 16 0.40625 16.90625 1.296875 
C 17.09375 1.5 17.203125 1.5 17.296875 1.5 
C 17.5 1.5 17.5 0.078125 17.5 -0.421875 
C 17.5 -3.75 16.90625 -10.296875 11.09375 -16.875 
C 10 -18.078125 10 -18.28125 10 -18.484375 
C 10 -19 10.5 -19.5 11 -19.5 
C 11.796875 -19.5 19.5 -12.046875 19.5 -0.484375 
z
" id="CMMI12-59"/>
    </defs>
    <g transform="translate(55.3392 230.256)scale(0.14 -0.14)">
     <use transform="translate(0 24.740171)scale(0.996264)" xlink:href="#CMMI12-99"/>
     <use transform="translate(41.983234 60.89381)scale(0.697382)" xlink:href="#CMR17-48"/>
     <use transform="translate(41.983234 0)scale(0.697382)" xlink:href="#CMMI12-116"/>
     <use transform="translate(66.641543 0)scale(0.697382)" xlink:href="#CMSY10-0"/>
     <use transform="translate(120.882536 0)scale(0.697382)" xlink:href="#CMR17-49"/>
     <use transform="translate(152.865718 0)scale(0.697382)" xlink:href="#CMMI12-59"/>
     <use transform="translate(171.833651 0)scale(0.697382)" xlink:href="#CMR17-48"/>
    </g>
   </g>
   <g id="text_4">
    <!-- ${c}^{1}_{t-1,0}$ -->
    <g transform="translate(137.0304 241.128)scale(0.14 -0.14)">
     <use transform="translate(0 24.740171)scale(0.996264)" xlink:href="#CMMI12-99"/>
     <use transform="translate(41.983234 60.89381)scale(0.697382)" xlink:href="#CMR17-49"/>
     <use transform="translate(41.983234 0)scale(0.697382)" xlink:href="#CMMI12-116"/>
     <use transform="translate(66.641543 0)scale(0.697382)" xlink:href="#CMSY10-0"/>
     <use transform="translate(120.882536 0)scale(0.697382)" xlink:href="#CMR17-49"/>
     <use transform="translate(152.865718 0)scale(0.697382)" xlink:href="#CMMI12-59"/>
     <use transform="translate(171.833651 0)scale(0.697382)" xlink:href="#CMR17-48"/>
    </g>
   </g>
   <g id="text_5">
    <!-- ${c}^{1}_{t-1,0}$ -->
    <g transform="translate(154.44 219.384)scale(0.14 -0.14)">
     <use transform="translate(0 24.740171)scale(0.996264)" xlink:href="#CMMI12-99"/>
     <use transform="translate(41.983234 60.89381)scale(0.697382)" xlink:href="#CMR17-49"/>
     <use transform="translate(41.983234 0)scale(0.697382)" xlink:href="#CMMI12-116"/>
     <use transform="translate(66.641543 0)scale(0.697382)" xlink:href="#CMSY10-0"/>
     <use transform="translate(120.882536 0)scale(0.697382)" xlink:href="#CMR17-49"/>
     <use transform="translate(152.865718 0)scale(0.697382)" xlink:href="#CMMI12-59"/>
     <use transform="translate(171.833651 0)scale(0.697382)" xlink:href="#CMR17-48"/>
    </g>
   </g>
   <g id="text_6">
    <!-- ${c}^{2}_{t-1,0}$ -->
    <defs>
     <path d="M 41.703125 15.453125 
L 39.90625 15.453125 
C 38.90625 8.375 38.09375 7.171875 37.703125 6.5625 
C 37.203125 5.765625 30 5.765625 28.59375 5.765625 
L 9.40625 5.765625 
C 13 9.671875 20 16.75 28.5 24.953125 
C 34.59375 30.734375 41.703125 37.53125 41.703125 47.421875 
C 41.703125 59.21875 32.296875 66 21.796875 66 
C 10.796875 66 4.09375 56.3125 4.09375 47.34375 
C 4.09375 43.4375 7 42.9375 8.203125 42.9375 
C 9.203125 42.9375 12.203125 43.546875 12.203125 47.03125 
C 12.203125 50.109375 9.59375 51 8.203125 51 
C 7.59375 51 7 50.90625 6.59375 50.703125 
C 8.5 59.21875 14.296875 63.40625 20.40625 63.40625 
C 29.09375 63.40625 34.796875 56.515625 34.796875 47.421875 
C 34.796875 38.734375 29.703125 31.25 24 24.75 
L 4.09375 2.28125 
L 4.09375 0 
L 39.296875 0 
z
" id="CMR17-50"/>
    </defs>
    <g transform="translate(241.488 230.256)scale(0.14 -0.14)">
     <use transform="translate(0 24.740171)scale(0.996264)" xlink:href="#CMMI12-99"/>
     <use transform="translate(41.983234 60.89381)scale(0.697382)" xlink:href="#CMR17-50"/>
     <use transform="translate(41.983234 0)scale(0.697382)" xlink:href="#CMMI12-116"/>
     <use transform="translate(66.641543 0)scale(0.697382)" xlink:href="#CMSY10-0"/>
     <use transform="translate(120.882536 0)scale(0.697382)" xlink:href="#CMR17-49"/>
     <use transform="translate(152.865718 0)scale(0.697382)" xlink:href="#CMMI12-59"/>
     <use transform="translate(171.833651 0)scale(0.697382)" xlink:href="#CMR17-48"/>
    </g>
   </g>
   <g id="text_7">
    <!-- $\bar{m}$ -->
    <defs>
     <path d="M 39.90625 55 
L 39.90625 57.28125 
L 5.90625 57.28125 
L 5.90625 55 
z
" id="CMR17-22"/>
    </defs>
    <g transform="translate(182.5632 273.744)scale(0.14 -0.14)">
     <use transform="translate(19.818381 0.006461)scale(0.996264)" xlink:href="#CMR17-22"/>
     <use transform="scale(0.996264)" xlink:href="#CMMI12-109"/>
    </g>
   </g>
  </g>
 </g>
 <defs>
  <clipPath id="p3c4fc1486f">
   <rect height="217.44" width="334.8" x="54" y="34.56"/>
  </clipPath>
 </defs>
</svg>
