<?xml version="1.0" encoding="utf-8" standalone="no"?>
<!DOCTYPE svg PUBLIC "-//W3C//DTD SVG 1.1//EN"
  "http://www.w3.org/Graphics/SVG/1.1/DTD/svg11.dtd">
<!-- Created with matplotlib (https://matplotlib.org/) -->
<svg height="345.6pt" version="1.1" viewBox="0 0 460.8 345.6" width="460.8pt" xmlns="http://www.w3.org/2000/svg" xmlns:xlink="http://www.w3.org/1999/xlink">
 <defs>
  <style type="text/css">
*{stroke-linecap:butt;stroke-linejoin:round;white-space:pre;}
  </style>
 </defs>
 <g id="figure_1">
  <g id="patch_1">
   <path d="M 0 345.6 
L 460.8 345.6 
L 460.8 0 
L 0 0 
z
" style="fill:#ffffff;"/>
  </g>
  <g id="axes_1">
   <g id="patch_2">
    <path d="M 57.6 307.584 
L 414.72 307.584 
L 414.72 41.472 
L 57.6 41.472 
z
" style="fill:#ffffff;"/>
   </g>
   <g id="patch_3">
    <path clip-path="url(#p35e5693d95)" d="M 331.051886 81.3888 
L 336.1536 79.1712 
L 336.1536 80.94528 
L 341.255314 80.94528 
L 341.255314 81.83232 
L 336.1536 81.83232 
L 336.1536 83.6064 
z
" style="stroke:#000000;stroke-linejoin:miter;"/>
   </g>
   <g id="patch_4">
    <path clip-path="url(#p35e5693d95)" d="M 297.380571 81.3888 
L 292.278857 83.6064 
L 292.278857 81.83232 
L 287.177143 81.83232 
L 287.177143 80.94528 
L 292.278857 80.94528 
L 292.278857 79.1712 
z
" style="stroke:#000000;stroke-linejoin:miter;"/>
   </g>
   <g id="patch_5">
    <path clip-path="url(#p35e5693d95)" d="M 254.526171 258.7968 
L 259.627886 256.5792 
L 259.627886 258.35328 
L 287.177143 258.35328 
L 287.177143 259.24032 
L 259.627886 259.24032 
L 259.627886 261.0144 
z
" style="stroke:#000000;stroke-linejoin:miter;"/>
   </g>
   <g id="patch_6">
    <path clip-path="url(#p35e5693d95)" d="M 180.041143 285.408 
L 174.939429 287.6256 
L 174.939429 285.85152 
L 134.125714 285.85152 
L 134.125714 284.96448 
L 174.939429 284.96448 
L 174.939429 283.1904 
z
" style="stroke:#000000;stroke-linejoin:miter;"/>
   </g>
   <g id="matplotlib.axis_1">
    <g id="xtick_1">
     <g id="line2d_1">
      <defs>
       <path d="M 0 0 
L 0 3.5 
" id="m08c3840bd0" style="stroke:#000000;stroke-width:0.8;"/>
      </defs>
      <g>
       <use style="stroke:#000000;stroke-width:0.8;" x="57.6" xlink:href="#m08c3840bd0" y="307.584"/>
      </g>
     </g>
     <g id="line2d_2">
      <defs>
       <path d="M 0 0 
L 0 -3.5 
" id="m48ba761522" style="stroke:#000000;stroke-width:0.8;"/>
      </defs>
      <g>
       <use style="stroke:#000000;stroke-width:0.8;" x="57.6" xlink:href="#m48ba761522" y="41.472"/>
      </g>
     </g>
    </g>
    <g id="xtick_2">
     <g id="line2d_3">
      <g>
       <use style="stroke:#000000;stroke-width:0.8;" x="108.617143" xlink:href="#m08c3840bd0" y="307.584"/>
      </g>
     </g>
     <g id="line2d_4">
      <g>
       <use style="stroke:#000000;stroke-width:0.8;" x="108.617143" xlink:href="#m48ba761522" y="41.472"/>
      </g>
     </g>
    </g>
    <g id="xtick_3">
     <g id="line2d_5">
      <g>
       <use style="stroke:#000000;stroke-width:0.8;" x="159.634286" xlink:href="#m08c3840bd0" y="307.584"/>
      </g>
     </g>
     <g id="line2d_6">
      <g>
       <use style="stroke:#000000;stroke-width:0.8;" x="159.634286" xlink:href="#m48ba761522" y="41.472"/>
      </g>
     </g>
    </g>
    <g id="xtick_4">
     <g id="line2d_7">
      <g>
       <use style="stroke:#000000;stroke-width:0.8;" x="210.651429" xlink:href="#m08c3840bd0" y="307.584"/>
      </g>
     </g>
     <g id="line2d_8">
      <g>
       <use style="stroke:#000000;stroke-width:0.8;" x="210.651429" xlink:href="#m48ba761522" y="41.472"/>
      </g>
     </g>
    </g>
    <g id="xtick_5">
     <g id="line2d_9">
      <g>
       <use style="stroke:#000000;stroke-width:0.8;" x="261.668571" xlink:href="#m08c3840bd0" y="307.584"/>
      </g>
     </g>
     <g id="line2d_10">
      <g>
       <use style="stroke:#000000;stroke-width:0.8;" x="261.668571" xlink:href="#m48ba761522" y="41.472"/>
      </g>
     </g>
    </g>
    <g id="xtick_6">
     <g id="line2d_11">
      <g>
       <use style="stroke:#000000;stroke-width:0.8;" x="312.685714" xlink:href="#m08c3840bd0" y="307.584"/>
      </g>
     </g>
     <g id="line2d_12">
      <g>
       <use style="stroke:#000000;stroke-width:0.8;" x="312.685714" xlink:href="#m48ba761522" y="41.472"/>
      </g>
     </g>
    </g>
    <g id="xtick_7">
     <g id="line2d_13">
      <g>
       <use style="stroke:#000000;stroke-width:0.8;" x="363.702857" xlink:href="#m08c3840bd0" y="307.584"/>
      </g>
     </g>
     <g id="line2d_14">
      <g>
       <use style="stroke:#000000;stroke-width:0.8;" x="363.702857" xlink:href="#m48ba761522" y="41.472"/>
      </g>
     </g>
    </g>
    <g id="xtick_8">
     <g id="line2d_15">
      <g>
       <use style="stroke:#000000;stroke-width:0.8;" x="414.72" xlink:href="#m08c3840bd0" y="307.584"/>
      </g>
     </g>
     <g id="line2d_16">
      <g>
       <use style="stroke:#000000;stroke-width:0.8;" x="414.72" xlink:href="#m48ba761522" y="41.472"/>
      </g>
     </g>
    </g>
   </g>
   <g id="matplotlib.axis_2">
    <g id="ytick_1">
     <g id="line2d_17">
      <defs>
       <path d="M 0 0 
L -3.5 0 
" id="mbc1cbaa691" style="stroke:#000000;stroke-width:0.8;"/>
      </defs>
      <g>
       <use style="stroke:#000000;stroke-width:0.8;" x="57.6" xlink:href="#mbc1cbaa691" y="307.584"/>
      </g>
     </g>
     <g id="line2d_18">
      <defs>
       <path d="M 0 0 
L 3.5 0 
" id="md0d219abf8" style="stroke:#000000;stroke-width:0.8;"/>
      </defs>
      <g>
       <use style="stroke:#000000;stroke-width:0.8;" x="414.72" xlink:href="#md0d219abf8" y="307.584"/>
      </g>
     </g>
    </g>
    <g id="ytick_2">
     <g id="line2d_19">
      <g>
       <use style="stroke:#000000;stroke-width:0.8;" x="57.6" xlink:href="#mbc1cbaa691" y="263.232"/>
      </g>
     </g>
     <g id="line2d_20">
      <g>
       <use style="stroke:#000000;stroke-width:0.8;" x="414.72" xlink:href="#md0d219abf8" y="263.232"/>
      </g>
     </g>
    </g>
    <g id="ytick_3">
     <g id="line2d_21">
      <g>
       <use style="stroke:#000000;stroke-width:0.8;" x="57.6" xlink:href="#mbc1cbaa691" y="218.88"/>
      </g>
     </g>
     <g id="line2d_22">
      <g>
       <use style="stroke:#000000;stroke-width:0.8;" x="414.72" xlink:href="#md0d219abf8" y="218.88"/>
      </g>
     </g>
    </g>
    <g id="ytick_4">
     <g id="line2d_23">
      <g>
       <use style="stroke:#000000;stroke-width:0.8;" x="57.6" xlink:href="#mbc1cbaa691" y="174.528"/>
      </g>
     </g>
     <g id="line2d_24">
      <g>
       <use style="stroke:#000000;stroke-width:0.8;" x="414.72" xlink:href="#md0d219abf8" y="174.528"/>
      </g>
     </g>
    </g>
    <g id="ytick_5">
     <g id="line2d_25">
      <g>
       <use style="stroke:#000000;stroke-width:0.8;" x="57.6" xlink:href="#mbc1cbaa691" y="130.176"/>
      </g>
     </g>
     <g id="line2d_26">
      <g>
       <use style="stroke:#000000;stroke-width:0.8;" x="414.72" xlink:href="#md0d219abf8" y="130.176"/>
      </g>
     </g>
    </g>
    <g id="ytick_6">
     <g id="line2d_27">
      <g>
       <use style="stroke:#000000;stroke-width:0.8;" x="57.6" xlink:href="#mbc1cbaa691" y="85.824"/>
      </g>
     </g>
     <g id="line2d_28">
      <g>
       <use style="stroke:#000000;stroke-width:0.8;" x="414.72" xlink:href="#md0d219abf8" y="85.824"/>
      </g>
     </g>
    </g>
    <g id="ytick_7">
     <g id="line2d_29">
      <g>
       <use style="stroke:#000000;stroke-width:0.8;" x="57.6" xlink:href="#mbc1cbaa691" y="41.472"/>
      </g>
     </g>
     <g id="line2d_30">
      <g>
       <use style="stroke:#000000;stroke-width:0.8;" x="414.72" xlink:href="#md0d219abf8" y="41.472"/>
      </g>
     </g>
    </g>
   </g>
   <g id="line2d_31">
    <path clip-path="url(#p35e5693d95)" d="M 79.661467 307.349256 
L 391.293729 -1 
L 391.293729 -1 
" style="fill:none;stroke:#000000;stroke-linecap:square;stroke-width:3;"/>
   </g>
   <g id="line2d_32">
    <path clip-path="url(#p35e5693d95)" d="M 138.083501 307.239298 
L 143.80314 294.957423 
L 148.297143 286.078725 
L 151.156963 280.807567 
L 154.425328 275.108423 
L 158.102239 269.055439 
L 161.370605 263.952354 
L 165.456062 257.857839 
L 169.541519 252.031402 
L 174.035521 245.867057 
L 178.938069 239.377482 
L 184.249163 232.568933 
L 191.19444 223.959145 
L 201.816628 211.21501 
L 215.707181 195.149539 
L 232.457555 176.373074 
L 252.067748 154.940162 
L 275.763398 129.572164 
L 303.95305 99.895552 
L 339.087979 63.416398 
L 382.802368 18.543144 
L 401.962986 -1 
L 401.962986 -1 
" style="fill:none;stroke:#000000;stroke-dasharray:11.1,4.8;stroke-dashoffset:0;stroke-width:3;"/>
   </g>
   <g id="line2d_33">
    <path clip-path="url(#p35e5693d95)" d="M 180.572252 306.989132 
L 208.353359 184.44633 
L 212.03027 176.444773 
L 213.255907 175.162216 
L 391.293729 -1 
L 391.293729 -1 
" style="fill:none;stroke:#000000;stroke-dasharray:3,4.95;stroke-dashoffset:0;stroke-width:3;"/>
   </g>
   <g id="line2d_34">
    <path clip-path="url(#p35e5693d95)" d="M 238.994286 307.240022 
L 247.165199 255.960219 
L 254.110476 214.929991 
L 259.42157 186.52505 
L 264.324118 163.893842 
L 268.818121 146.656148 
L 272.495032 134.90428 
L 273.312124 133.479538 
L 276.171943 129.130939 
L 300.684685 103.307701 
L 330.50852 72.275974 
L 367.686178 34.004144 
L 401.957896 -1 
L 401.957896 -1 
" style="fill:none;stroke:#000000;stroke-dasharray:5.55,2.4;stroke-dashoffset:0;stroke-width:1.5;"/>
   </g>
   <g id="line2d_35">
    <path clip-path="url(#p35e5693d95)" d="M 210.651429 307.584 
L 210.651429 178.9632 
" style="fill:none;stroke:#000000;stroke-dasharray:1.5,2.475;stroke-dashoffset:0;stroke-width:1.5;"/>
   </g>
   <g id="line2d_36">
    <path clip-path="url(#p35e5693d95)" d="M 273.912686 307.584 
L 273.912686 130.176 
" style="fill:none;stroke:#000000;stroke-dasharray:1.5,2.475;stroke-dashoffset:0;stroke-width:1.5;"/>
   </g>
   <g id="patch_7">
    <path d="M 57.6 307.584 
L 57.6 41.472 
" style="fill:none;stroke:#000000;stroke-linecap:square;stroke-linejoin:miter;stroke-width:0.8;"/>
   </g>
   <g id="patch_8">
    <path d="M 414.72 307.584 
L 414.72 41.472 
" style="fill:none;stroke:#000000;stroke-linecap:square;stroke-linejoin:miter;stroke-width:0.8;"/>
   </g>
   <g id="patch_9">
    <path d="M 57.6 307.584 
L 414.72 307.584 
" style="fill:none;stroke:#000000;stroke-linecap:square;stroke-linejoin:miter;stroke-width:0.8;"/>
   </g>
   <g id="patch_10">
    <path d="M 57.6 41.472 
L 414.72 41.472 
" style="fill:none;stroke:#000000;stroke-linecap:square;stroke-linejoin:miter;stroke-width:0.8;"/>
   </g>
   <g id="text_1">
    <!-- $c$ -->
    <defs>
     <path d="M 39.09375 38 
C 37.203125 38 36.296875 38 34.90625 36.796875 
C 34.296875 36.296875 33.203125 34.796875 33.203125 33.1875 
C 33.203125 31.1875 34.703125 29.984375 36.59375 29.984375 
C 39 29.984375 41.703125 31.984375 41.703125 35.984375 
C 41.703125 40.484375 37.09375 44 30.203125 44 
C 17.09375 44 4 30.1875 4 15.796875 
C 4 6.96875 9.40625 -1 19.59375 -1 
C 33.203125 -1 41.796875 9.71875 41.796875 11.03125 
C 41.796875 11.640625 41.203125 12.140625 40.796875 12.140625 
C 40.5 12.140625 40.40625 12.046875 39.5 11.125 
C 33.09375 2.515625 23.59375 1 19.796875 1 
C 12.90625 1 10.703125 7.078125 10.703125 12.140625 
C 10.703125 15.6875 12.40625 25.53125 16 32.390625 
C 18.59375 37.09375 24 41.984375 30.296875 41.984375 
C 31.59375 41.984375 37.09375 41.8125 39.09375 38 
z
" id="CMMI12-99"/>
    </defs>
    <g transform="translate(42.294857 37.0368)scale(0.14 -0.14)">
     <use transform="scale(0.996264)" xlink:href="#CMMI12-99"/>
    </g>
   </g>
   <g id="text_2">
    <!-- ${m}$ -->
    <defs>
     <path d="M 20.59375 29.21875 
C 20.796875 29.828125 23.296875 34.8125 27 38 
C 29.59375 40.390625 33 41.984375 36.90625 41.984375 
C 40.90625 41.984375 42.296875 39 42.296875 35.015625 
C 42.296875 34.40625 42.296875 32.421875 41.09375 27.734375 
L 38.59375 17.453125 
C 37.796875 14.453125 35.90625 7.078125 35.703125 5.984375 
C 35.296875 4.484375 34.703125 1.890625 34.703125 1.484375 
C 34.703125 0.09375 35.796875 -1 37.296875 -1 
C 40.296875 -1 40.796875 1.296875 41.703125 4.890625 
L 47.703125 28.71875 
C 47.90625 29.53125 53.09375 41.984375 64.09375 41.984375 
C 68.09375 41.984375 69.5 39 69.5 35.015625 
C 69.5 29.421875 65.59375 18.546875 63.40625 12.5625 
C 62.5 10.171875 62 8.875 62 7.078125 
C 62 2.59375 65.09375 -1 69.90625 -1 
C 79.203125 -1 82.703125 13.65625 82.703125 14.265625 
C 82.703125 14.765625 82.296875 15.15625 81.703125 15.15625 
C 80.796875 15.15625 80.703125 14.859375 80.203125 13.15625 
C 77.90625 5.1875 74.203125 1 70.203125 1 
C 69.203125 1 67.59375 1.09375 67.59375 4.28125 
C 67.59375 6.875 68.796875 10.078125 69.203125 11.171875 
C 71 15.953125 75.5 27.734375 75.5 33.515625 
C 75.5 39.5 72 44 64.40625 44 
C 57.703125 44 52.296875 40.203125 48.296875 34.3125 
C 48 39.703125 44.703125 44 37.203125 44 
C 28.296875 44 23.59375 37.703125 21.796875 35.203125 
C 21.5 40.890625 17.40625 44 13 44 
C 10.09375 44 7.796875 42.59375 5.90625 38.796875 
C 4.09375 35.203125 2.703125 29.125 2.703125 28.71875 
C 2.703125 28.328125 3.09375 27.828125 3.796875 27.828125 
C 4.59375 27.828125 4.703125 27.921875 5.296875 30.21875 
C 6.796875 36.109375 8.703125 41.984375 12.703125 41.984375 
C 15 41.984375 15.796875 40.390625 15.796875 37.40625 
C 15.796875 35.203125 14.796875 31.3125 14.09375 28.234375 
L 11.296875 17.453125 
C 10.90625 15.5625 9.796875 11.0625 9.296875 9.265625 
C 8.59375 6.671875 7.5 1.984375 7.5 1.484375 
C 7.5 0.09375 8.59375 -1 10.09375 -1 
C 11.296875 -1 12.703125 -0.40625 13.5 1.09375 
C 13.703125 1.59375 14.59375 5.078125 15.09375 7.078125 
L 17.296875 16.0625 
z
" id="CMMI12-109"/>
    </defs>
    <g transform="translate(414.72 325.3248)scale(0.14 -0.14)">
     <use transform="scale(0.996264)" xlink:href="#CMMI12-109"/>
    </g>
   </g>
   <g id="text_3">
    <!-- ${c}_{t,0}$ -->
    <defs>
     <path d="M 20.09375 40.09375 
L 29.296875 40.09375 
C 31.203125 40.09375 32.203125 40.09375 32.203125 41.890625 
C 32.203125 43 31.59375 43 29.59375 43 
L 20.796875 43 
L 24.5 57.25 
C 24.90625 58.625 24.90625 58.8125 24.90625 59.5 
C 24.90625 61.09375 23.59375 62 22.296875 62 
C 21.5 62 19.203125 61.6875 18.40625 58.53125 
L 14.5 43 
L 5.09375 43 
C 3.09375 43 2.203125 43 2.203125 41.09375 
C 2.203125 40.09375 2.90625 40.09375 4.796875 40.09375 
L 13.703125 40.09375 
L 7.09375 13.765625 
C 6.296875 10.265625 6 9.265625 6 7.96875 
C 6 3.28125 9.296875 -1 14.90625 -1 
C 25 -1 30.40625 13.5625 30.40625 14.265625 
C 30.40625 14.859375 30 15.15625 29.40625 15.15625 
C 29.203125 15.15625 28.796875 15.15625 28.59375 14.75 
C 28.5 14.65625 28.40625 14.5625 27.703125 12.96875 
C 25.59375 7.96875 21 1 15.203125 1 
C 12.203125 1 12 3.484375 12 5.6875 
C 12 5.78125 12 7.671875 12.296875 8.875 
z
" id="CMMI12-116"/>
     <path d="M 19.5 -0.40625 
C 19.5 5.390625 17.59375 9.6875 13.5 9.6875 
C 10.296875 9.6875 8.703125 7.09375 8.703125 4.890625 
C 8.703125 2.6875 10.203125 0 13.59375 0 
C 14.90625 0 16 0.390625 16.90625 1.296875 
C 17.09375 1.5 17.203125 1.5 17.296875 1.5 
C 17.5 1.5 17.5 0.09375 17.5 -0.40625 
C 17.5 -3.640625 16.90625 -10.03125 11.09375 -16.421875 
C 10 -17.609375 10 -17.8125 10 -18 
C 10 -18.5 10.5 -19 11 -19 
C 11.796875 -19 19.5 -11.703125 19.5 -0.40625 
z
" id="CMMI12-59"/>
     <path d="M 42 31.84375 
C 42 37.96875 41.90625 48.421875 37.703125 56.453125 
C 34 63.484375 28.09375 66 22.90625 66 
C 18.09375 66 12 63.78125 8.203125 56.5625 
C 4.203125 49.015625 3.796875 39.671875 3.796875 31.84375 
C 3.796875 26.109375 3.90625 17.375 7 9.734375 
C 11.296875 -0.609375 19 -2 22.90625 -2 
C 27.5 -2 34.5 -0.109375 38.59375 9.4375 
C 41.59375 16.375 42 24.5 42 31.84375 
z
M 22.90625 -0.40625 
C 16.5 -0.40625 12.703125 5.125 11.296875 12.75 
C 10.203125 18.6875 10.203125 27.328125 10.203125 32.953125 
C 10.203125 40.6875 10.203125 47.109375 11.5 53.234375 
C 13.40625 61.78125 19 64.390625 22.90625 64.390625 
C 27 64.390625 32.296875 61.671875 34.203125 53.4375 
C 35.5 47.71875 35.59375 40.984375 35.59375 32.953125 
C 35.59375 26.421875 35.59375 18.375 34.40625 12.453125 
C 32.296875 1.5 26.40625 -0.40625 22.90625 -0.40625 
z
" id="CMR17-48"/>
    </defs>
    <g transform="translate(261.668571 85.824)scale(0.14 -0.14)">
     <use transform="translate(0 14.943915)scale(0.996264)" xlink:href="#CMMI12-99"/>
     <use transform="translate(41.983234 0)scale(0.697382)" xlink:href="#CMMI12-116"/>
     <use transform="translate(66.641543 0)scale(0.697382)" xlink:href="#CMMI12-59"/>
     <use transform="translate(85.609476 0)scale(0.697382)" xlink:href="#CMR17-48"/>
    </g>
   </g>
   <g id="text_4">
    <!-- $\tilde{c}_{t,0}$ -->
    <defs>
     <path d="M 37.5 65.59375 
C 34.09375 62.296875 32.203125 60.390625 29.09375 60.390625 
C 26.90625 60.390625 25.40625 61.5 23.296875 63 
C 21.296875 64.390625 19.703125 65.59375 17.5 65.59375 
C 13.90625 65.59375 11.40625 62.6875 7.203125 58.09375 
L 8.296875 57 
C 11.703125 60.296875 13.59375 62.1875 16.703125 62.1875 
C 18.90625 62.1875 20.40625 61.09375 22.5 59.59375 
C 24.5 58.1875 26.09375 57 28.296875 57 
C 31.90625 57 34.40625 59.890625 38.59375 64.5 
z
" id="CMR17-126"/>
    </defs>
    <g transform="translate(343.296 85.824)scale(0.14 -0.14)">
     <use transform="translate(3.565821 14.950375)scale(0.996264)" xlink:href="#CMR17-126"/>
     <use transform="translate(0 14.943915)scale(0.996264)" xlink:href="#CMMI12-99"/>
     <use transform="translate(41.983234 0)scale(0.697382)" xlink:href="#CMMI12-116"/>
     <use transform="translate(66.641543 0)scale(0.697382)" xlink:href="#CMMI12-59"/>
     <use transform="translate(85.609476 0)scale(0.697382)" xlink:href="#CMR17-48"/>
    </g>
   </g>
   <g id="text_5">
    <!-- ${c}_{t,1}$ -->
    <defs>
     <path d="M 26.59375 63.796875 
C 26.59375 65.890625 26.5 66 25.09375 66 
C 21.203125 61.359375 15.296875 59.890625 9.703125 59.6875 
C 9.40625 59.6875 8.90625 59.6875 8.796875 59.5 
C 8.703125 59.296875 8.703125 59.09375 8.703125 57 
C 11.796875 57 17 57.59375 21 59.984375 
L 21 7.296875 
C 21 3.796875 20.796875 2.59375 12.203125 2.59375 
L 9.203125 2.59375 
L 9.203125 0 
C 14 0.09375 19 0.1875 23.796875 0.1875 
C 28.59375 0.1875 33.59375 0.09375 38.40625 0 
L 38.40625 2.59375 
L 35.40625 2.59375 
C 26.796875 2.59375 26.59375 3.6875 26.59375 7.296875 
z
" id="CMR17-49"/>
    </defs>
    <g transform="translate(113.718857 289.8432)scale(0.14 -0.14)">
     <use transform="translate(0 14.943915)scale(0.996264)" xlink:href="#CMMI12-99"/>
     <use transform="translate(41.983234 0)scale(0.697382)" xlink:href="#CMMI12-116"/>
     <use transform="translate(66.641543 0)scale(0.697382)" xlink:href="#CMMI12-59"/>
     <use transform="translate(85.609476 0)scale(0.697382)" xlink:href="#CMR17-49"/>
    </g>
   </g>
   <g id="text_6">
    <!-- $\tilde{c}_{t,1}$ -->
    <g transform="translate(292.278857 263.232)scale(0.14 -0.14)">
     <use transform="translate(3.565821 14.950375)scale(0.996264)" xlink:href="#CMR17-126"/>
     <use transform="translate(0 14.943915)scale(0.996264)" xlink:href="#CMMI12-99"/>
     <use transform="translate(41.983234 0)scale(0.697382)" xlink:href="#CMMI12-116"/>
     <use transform="translate(66.641543 0)scale(0.697382)" xlink:href="#CMMI12-59"/>
     <use transform="translate(85.609476 0)scale(0.697382)" xlink:href="#CMR17-49"/>
    </g>
   </g>
   <g id="text_7">
    <!-- ${\omega}_{t,1}$ -->
    <defs>
     <path d="M 59.40625 37.59375 
C 59.40625 40.5 58.59375 44.1875 55.09375 44.1875 
C 53.09375 44.1875 50.796875 41.6875 50.796875 39.6875 
C 50.796875 38.796875 51.203125 38.1875 52 37.296875 
C 53.5 35.59375 55.40625 32.890625 55.40625 28.1875 
C 55.40625 24.59375 53.203125 18.890625 51.59375 15.796875 
C 48.796875 10.296875 44.203125 5.59375 39 5.59375 
C 32.703125 5.59375 30.296875 9.59375 29.203125 15.1875 
C 30.296875 17.796875 32.59375 24.296875 32.59375 26.890625 
C 32.59375 28 32.203125 28.890625 30.90625 28.890625 
C 30.203125 28.890625 29.40625 28.5 28.90625 27.6875 
C 27.5 25.5 26.203125 17.59375 26.296875 15.5 
C 24.40625 11.796875 19 5.59375 12.59375 5.59375 
C 5.90625 5.59375 4.09375 11.5 4.09375 17.1875 
C 4.09375 27.59375 10.59375 36.6875 12.40625 39.1875 
C 13.40625 40.6875 14.09375 41.6875 14.09375 41.890625 
C 14.09375 42.59375 13.703125 43.6875 12.796875 43.6875 
C 11.203125 43.6875 10.703125 42.390625 9.90625 41.1875 
C 4.796875 33.296875 1.203125 22.1875 1.203125 12.59375 
C 1.203125 6.390625 3.5 -1 11 -1 
C 19.296875 -1 24.5 6.09375 26.59375 9.890625 
C 27.40625 4.296875 30.40625 -1 37.703125 -1 
C 45.296875 -1 50.09375 5.6875 53.703125 13.796875 
C 56.296875 19.59375 59.40625 32.09375 59.40625 37.59375 
z
" id="CMMI12-33"/>
    </defs>
    <g transform="translate(200.448 325.3248)scale(0.14 -0.14)">
     <use transform="translate(0 14.943915)scale(0.996264)" xlink:href="#CMMI12-33"/>
     <use transform="translate(60.743753 0)scale(0.697382)" xlink:href="#CMMI12-116"/>
     <use transform="translate(85.402063 0)scale(0.697382)" xlink:href="#CMMI12-59"/>
     <use transform="translate(104.369996 0)scale(0.697382)" xlink:href="#CMR17-49"/>
    </g>
   </g>
   <g id="text_8">
    <!-- $\bar{\omega}_{t,1}$ -->
    <defs>
     <path d="M 39.90625 55 
L 39.90625 57.296875 
L 5.90625 57.296875 
L 5.90625 55 
z
" id="CMR17-22"/>
    </defs>
    <g transform="translate(266.770286 325.3248)scale(0.14 -0.14)">
     <use transform="translate(9.313934 14.950375)scale(0.996264)" xlink:href="#CMR17-22"/>
     <use transform="translate(0 14.943915)scale(0.996264)" xlink:href="#CMMI12-33"/>
     <use transform="translate(60.743753 0)scale(0.697382)" xlink:href="#CMMI12-116"/>
     <use transform="translate(85.402063 0)scale(0.697382)" xlink:href="#CMMI12-59"/>
     <use transform="translate(104.369996 0)scale(0.697382)" xlink:href="#CMR17-49"/>
    </g>
   </g>
  </g>
 </g>
 <defs>
  <clipPath id="p35e5693d95">
   <rect height="266.112" width="357.12" x="57.6" y="41.472"/>
  </clipPath>
 </defs>
</svg>
