<?xml version="1.0" encoding="utf-8" standalone="no"?>
<!DOCTYPE svg PUBLIC "-//W3C//DTD SVG 1.1//EN"
  "http://www.w3.org/Graphics/SVG/1.1/DTD/svg11.dtd">
<!-- Created with matplotlib (https://matplotlib.org/) -->
<svg height="288pt" version="1.1" viewBox="0 0 432 288" width="432pt" xmlns="http://www.w3.org/2000/svg" xmlns:xlink="http://www.w3.org/1999/xlink">
 <defs>
  <style type="text/css">
*{stroke-linecap:butt;stroke-linejoin:round;}
  </style>
 </defs>
 <g id="figure_1">
  <g id="patch_1">
   <path d="M 0 288 
L 432 288 
L 432 0 
L 0 0 
z
" style="fill:#ffffff;"/>
  </g>
  <g id="axes_1">
   <g id="patch_2">
    <path d="M 54 252 
L 388.8 252 
L 388.8 34.56 
L 54 34.56 
z
" style="fill:#ffffff;"/>
   </g>
   <g id="patch_3">
    <path clip-path="url(#p04b136e172)" d="M 310.361143 67.176 
L 315.144 65.364 
L 315.144 66.8136 
L 319.926857 66.8136 
L 319.926857 67.5384 
L 315.144 67.5384 
L 315.144 68.988 
z
" style="stroke:#000000;stroke-linejoin:miter;"/>
   </g>
   <g id="patch_4">
    <path clip-path="url(#p04b136e172)" d="M 278.794286 67.176 
L 274.011429 68.988 
L 274.011429 67.5384 
L 269.228571 67.5384 
L 269.228571 66.8136 
L 274.011429 66.8136 
L 274.011429 65.364 
z
" style="stroke:#000000;stroke-linejoin:miter;"/>
   </g>
   <g id="patch_5">
    <path clip-path="url(#p04b136e172)" d="M 238.618286 212.136 
L 243.401143 210.324 
L 243.401143 211.7736 
L 269.228571 211.7736 
L 269.228571 212.4984 
L 243.401143 212.4984 
L 243.401143 213.948 
z
" style="stroke:#000000;stroke-linejoin:miter;"/>
   </g>
   <g id="patch_6">
    <path clip-path="url(#p04b136e172)" d="M 168.788571 233.88 
L 164.005714 235.692 
L 164.005714 234.2424 
L 125.742857 234.2424 
L 125.742857 233.5176 
L 164.005714 233.5176 
L 164.005714 232.068 
z
" style="stroke:#000000;stroke-linejoin:miter;"/>
   </g>
   <g id="matplotlib.axis_1">
    <g id="xtick_1"/>
    <g id="xtick_2"/>
    <g id="xtick_3"/>
    <g id="xtick_4"/>
    <g id="xtick_5"/>
    <g id="xtick_6"/>
    <g id="xtick_7"/>
    <g id="xtick_8"/>
   </g>
   <g id="matplotlib.axis_2">
    <g id="ytick_1"/>
    <g id="ytick_2"/>
    <g id="ytick_3"/>
    <g id="ytick_4"/>
    <g id="ytick_5"/>
    <g id="ytick_6"/>
    <g id="ytick_7"/>
   </g>
   <g id="line2d_1">
    <path clip-path="url(#p04b136e172)" d="M 74.682625 251.80819 
L 367.830631 -1 
L 367.830631 -1 
" style="fill:none;stroke:#000000;stroke-linecap:square;stroke-width:3;"/>
   </g>
   <g id="line2d_2">
    <path clip-path="url(#p04b136e172)" d="M 129.453282 251.718344 
L 134.815444 241.68283 
L 139.411583 233.788773 
L 142.092664 229.517954 
L 145.156757 224.894736 
L 148.220849 220.518329 
L 151.667954 215.835374 
L 155.498069 210.878333 
L 159.328185 206.137226 
L 163.924324 200.663511 
L 171.201544 192.410984 
L 178.095753 184.887426 
L 189.5861 172.867089 
L 202.991506 159.375004 
L 218.694981 144.052466 
L 237.079537 126.555445 
L 259.67722 105.486756 
L 286.488031 80.905468 
L 319.427027 51.115205 
L 360.792278 14.122407 
L 377.803374 -1 
L 377.803374 -1 
" style="fill:none;stroke:#000000;stroke-dasharray:11.1,4.8;stroke-dashoffset:0;stroke-width:3;"/>
   </g>
   <g id="line2d_3">
    <path clip-path="url(#p04b136e172)" d="M 169.286486 251.513934 
L 195.331274 151.384263 
L 198.778378 144.846194 
L 199.927413 143.798217 
L 367.830631 -1 
L 367.830631 -1 
" style="fill:none;stroke:#000000;stroke-linecap:square;stroke-width:1.5;"/>
   </g>
   <g id="line2d_4">
    <path clip-path="url(#p04b136e172)" d="M 224.057143 251.718935 
L 232.100386 207.818082 
L 238.228571 176.29245 
L 243.207722 153.082785 
L 247.803861 134.590834 
L 252.016988 120.505921 
L 255.464093 110.903475 
L 256.230116 109.739319 
L 258.911197 106.186081 
L 283.423938 83.689481 
L 311.766795 58.00461 
L 347.003861 26.406878 
L 377.801258 -1 
L 377.801258 -1 
" style="fill:none;stroke:#000000;stroke-dasharray:5.55,2.4;stroke-dashoffset:0;stroke-width:1.5;"/>
   </g>
   <g id="line2d_5">
    <path clip-path="url(#p04b136e172)" d="M 197.485714 252 
L 197.485714 146.904 
" style="fill:none;stroke:#000000;stroke-dasharray:1.5,2.475;stroke-dashoffset:0;stroke-width:1.5;"/>
   </g>
   <g id="line2d_6">
    <path clip-path="url(#p04b136e172)" d="M 256.793143 252 
L 256.793143 107.04 
" style="fill:none;stroke:#000000;stroke-dasharray:1.5,2.475;stroke-dashoffset:0;stroke-width:1.5;"/>
   </g>
   <g id="patch_7">
    <path d="M 54 252 
L 54 34.56 
" style="fill:none;stroke:#000000;stroke-linecap:square;stroke-linejoin:miter;stroke-width:0.8;"/>
   </g>
   <g id="patch_8">
    <path d="M 388.8 252 
L 388.8 34.56 
" style="fill:none;stroke:#000000;stroke-linecap:square;stroke-linejoin:miter;stroke-width:0.8;"/>
   </g>
   <g id="patch_9">
    <path d="M 54 252 
L 388.8 252 
" style="fill:none;stroke:#000000;stroke-linecap:square;stroke-linejoin:miter;stroke-width:0.8;"/>
   </g>
   <g id="patch_10">
    <path d="M 54 34.56 
L 388.8 34.56 
" style="fill:none;stroke:#000000;stroke-linecap:square;stroke-linejoin:miter;stroke-width:0.8;"/>
   </g>
   <g id="text_1">
    <!-- $c$ -->
    <defs>
     <path d="M 39.09375 38 
C 37.203125 38 36.296875 38 34.90625 36.796875 
C 34.296875 36.296875 33.203125 34.796875 33.203125 33.1875 
C 33.203125 31.1875 34.703125 29.984375 36.59375 29.984375 
C 39 29.984375 41.703125 31.984375 41.703125 35.984375 
C 41.703125 40.484375 37.09375 44 30.203125 44 
C 17.09375 44 4 30.1875 4 15.796875 
C 4 6.96875 9.40625 -1 19.59375 -1 
C 33.203125 -1 41.796875 9.71875 41.796875 11.03125 
C 41.796875 11.640625 41.203125 12.140625 40.796875 12.140625 
C 40.5 12.140625 40.40625 12.046875 39.5 11.125 
C 33.09375 2.515625 23.59375 1 19.796875 1 
C 12.90625 1 10.703125 7.078125 10.703125 12.140625 
C 10.703125 15.6875 12.40625 25.53125 16 32.390625 
C 18.59375 37.09375 24 41.984375 30.296875 41.984375 
C 31.59375 41.984375 37.09375 41.8125 39.09375 38 
z
" id="CMMI12-99"/>
    </defs>
    <g transform="translate(39.651429 30.936)scale(0.14 -0.14)">
     <use transform="scale(0.996264)" xlink:href="#CMMI12-99"/>
    </g>
   </g>
   <g id="text_2">
    <!-- $w$ -->
    <defs>
     <path d="M 34.40625 6.078125 
C 36.59375 0.09375 42.796875 -1 46.59375 -1 
C 54.203125 -1 58.703125 5.578125 61.5 12.46875 
C 63.796875 18.25 67.5 31.421875 67.5 37.3125 
C 67.5 43.390625 64.40625 44 63.5 44 
C 61.09375 44 58.90625 41.59375 58.90625 39.59375 
C 58.90625 38.40625 59.59375 37.703125 60.09375 37.3125 
C 61 36.40625 63.59375 33.71875 63.59375 28.53125 
C 63.59375 25.140625 60.796875 15.75 58.703125 11.0625 
C 55.90625 4.984375 52.203125 1 47 1 
C 41.40625 1 39.59375 5.1875 39.59375 9.765625 
C 39.59375 12.65625 40.5 16.15625 40.90625 17.84375 
L 45.09375 34.609375 
C 45.59375 36.609375 46.5 40.09375 46.5 40.484375 
C 46.5 41.984375 45.296875 43 43.796875 43 
C 40.90625 43 40.203125 40.484375 39.59375 38.09375 
C 38.59375 34.203125 34.40625 17.34375 34 15.15625 
C 33.59375 13.453125 33.59375 12.359375 33.59375 10.171875 
C 33.59375 7.78125 30.40625 3.984375 30.296875 3.78125 
C 29.203125 2.6875 27.59375 1 24.5 1 
C 16.59375 1 16.59375 8.46875 16.59375 10.171875 
C 16.59375 13.359375 17.296875 17.75 21.796875 29.625 
C 23 32.71875 23.5 34.015625 23.5 36.015625 
C 23.5 40.203125 20.5 44 15.59375 44 
C 6.40625 44 2.703125 29.53125 2.703125 28.71875 
C 2.703125 28.328125 3.09375 27.828125 3.796875 27.828125 
C 4.703125 27.828125 4.796875 28.234375 5.203125 29.625 
C 7.703125 38.40625 11.59375 41.984375 15.296875 41.984375 
C 16.296875 41.984375 17.90625 41.890625 17.90625 38.703125 
C 17.90625 38.203125 17.90625 36.109375 16.203125 31.71875 
C 11.5 19.25 10.5 15.15625 10.5 11.375 
C 10.5 0.890625 19.09375 -1 24.203125 -1 
C 25.90625 -1 30.40625 -1 34.40625 6.078125 
z
" id="CMMI12-119"/>
    </defs>
    <g transform="translate(388.8 266.496)scale(0.14 -0.14)">
     <use transform="scale(0.996264)" xlink:href="#CMMI12-119"/>
    </g>
   </g>
   <g id="text_3">
    <!-- ${c}_{t,0}$ -->
    <defs>
     <path d="M 20.09375 40.09375 
L 29.296875 40.09375 
C 31.203125 40.09375 32.203125 40.09375 32.203125 41.890625 
C 32.203125 43 31.59375 43 29.59375 43 
L 20.796875 43 
L 24.5 57.25 
C 24.90625 58.625 24.90625 58.8125 24.90625 59.5 
C 24.90625 61.09375 23.59375 62 22.296875 62 
C 21.5 62 19.203125 61.6875 18.40625 58.53125 
L 14.5 43 
L 5.09375 43 
C 3.09375 43 2.203125 43 2.203125 41.09375 
C 2.203125 40.09375 2.90625 40.09375 4.796875 40.09375 
L 13.703125 40.09375 
L 7.09375 13.765625 
C 6.296875 10.265625 6 9.265625 6 7.96875 
C 6 3.28125 9.296875 -1 14.90625 -1 
C 25 -1 30.40625 13.5625 30.40625 14.265625 
C 30.40625 14.859375 30 15.15625 29.40625 15.15625 
C 29.203125 15.15625 28.796875 15.15625 28.59375 14.75 
C 28.5 14.65625 28.40625 14.5625 27.703125 12.96875 
C 25.59375 7.96875 21 1 15.203125 1 
C 12.203125 1 12 3.484375 12 5.6875 
C 12 5.78125 12 7.671875 12.296875 8.875 
z
" id="CMMI12-116"/>
     <path d="M 19.5 -0.40625 
C 19.5 5.390625 17.59375 9.6875 13.5 9.6875 
C 10.296875 9.6875 8.703125 7.09375 8.703125 4.890625 
C 8.703125 2.6875 10.203125 0 13.59375 0 
C 14.90625 0 16 0.390625 16.90625 1.296875 
C 17.09375 1.5 17.203125 1.5 17.296875 1.5 
C 17.5 1.5 17.5 0.09375 17.5 -0.40625 
C 17.5 -3.640625 16.90625 -10.03125 11.09375 -16.421875 
C 10 -17.609375 10 -17.8125 10 -18 
C 10 -18.5 10.5 -19 11 -19 
C 11.796875 -19 19.5 -11.703125 19.5 -0.40625 
z
" id="CMMI12-59"/>
     <path d="M 42 31.84375 
C 42 37.96875 41.90625 48.421875 37.703125 56.453125 
C 34 63.484375 28.09375 66 22.90625 66 
C 18.09375 66 12 63.78125 8.203125 56.5625 
C 4.203125 49.015625 3.796875 39.671875 3.796875 31.84375 
C 3.796875 26.109375 3.90625 17.375 7 9.734375 
C 11.296875 -0.609375 19 -2 22.90625 -2 
C 27.5 -2 34.5 -0.109375 38.59375 9.4375 
C 41.59375 16.375 42 24.5 42 31.84375 
z
M 22.90625 -0.40625 
C 16.5 -0.40625 12.703125 5.125 11.296875 12.75 
C 10.203125 18.6875 10.203125 27.328125 10.203125 32.953125 
C 10.203125 40.6875 10.203125 47.109375 11.5 53.234375 
C 13.40625 61.78125 19 64.390625 22.90625 64.390625 
C 27 64.390625 32.296875 61.671875 34.203125 53.4375 
C 35.5 47.71875 35.59375 40.984375 35.59375 32.953125 
C 35.59375 26.421875 35.59375 18.375 34.40625 12.453125 
C 32.296875 1.5 26.40625 -0.40625 22.90625 -0.40625 
z
" id="CMR17-48"/>
    </defs>
    <g transform="translate(245.314286 70.8)scale(0.14 -0.14)">
     <use transform="translate(0 14.943915)scale(0.996264)" xlink:href="#CMMI12-99"/>
     <use transform="translate(41.983234 0)scale(0.697382)" xlink:href="#CMMI12-116"/>
     <use transform="translate(66.641543 0)scale(0.697382)" xlink:href="#CMMI12-59"/>
     <use transform="translate(85.609476 0)scale(0.697382)" xlink:href="#CMR17-48"/>
    </g>
   </g>
   <g id="text_4">
    <!-- $\tilde{c}_{t,0}$ -->
    <defs>
     <path d="M 37.5 65.59375 
C 34.09375 62.296875 32.203125 60.390625 29.09375 60.390625 
C 26.90625 60.390625 25.40625 61.5 23.296875 63 
C 21.296875 64.390625 19.703125 65.59375 17.5 65.59375 
C 13.90625 65.59375 11.40625 62.6875 7.203125 58.09375 
L 8.296875 57 
C 11.703125 60.296875 13.59375 62.1875 16.703125 62.1875 
C 18.90625 62.1875 20.40625 61.09375 22.5 59.59375 
C 24.5 58.1875 26.09375 57 28.296875 57 
C 31.90625 57 34.40625 59.890625 38.59375 64.5 
z
" id="CMR17-126"/>
    </defs>
    <g transform="translate(321.84 70.8)scale(0.14 -0.14)">
     <use transform="translate(3.565821 14.950375)scale(0.996264)" xlink:href="#CMR17-126"/>
     <use transform="translate(0 14.943915)scale(0.996264)" xlink:href="#CMMI12-99"/>
     <use transform="translate(41.983234 0)scale(0.697382)" xlink:href="#CMMI12-116"/>
     <use transform="translate(66.641543 0)scale(0.697382)" xlink:href="#CMMI12-59"/>
     <use transform="translate(85.609476 0)scale(0.697382)" xlink:href="#CMR17-48"/>
    </g>
   </g>
   <g id="text_5">
    <!-- ${c}_{t,1}$ -->
    <defs>
     <path d="M 26.59375 63.796875 
C 26.59375 65.890625 26.5 66 25.09375 66 
C 21.203125 61.359375 15.296875 59.890625 9.703125 59.6875 
C 9.40625 59.6875 8.90625 59.6875 8.796875 59.5 
C 8.703125 59.296875 8.703125 59.09375 8.703125 57 
C 11.796875 57 17 57.59375 21 59.984375 
L 21 7.296875 
C 21 3.796875 20.796875 2.59375 12.203125 2.59375 
L 9.203125 2.59375 
L 9.203125 0 
C 14 0.09375 19 0.1875 23.796875 0.1875 
C 28.59375 0.1875 33.59375 0.09375 38.40625 0 
L 38.40625 2.59375 
L 35.40625 2.59375 
C 26.796875 2.59375 26.59375 3.6875 26.59375 7.296875 
z
" id="CMR17-49"/>
    </defs>
    <g transform="translate(106.611429 237.504)scale(0.14 -0.14)">
     <use transform="translate(0 14.943915)scale(0.996264)" xlink:href="#CMMI12-99"/>
     <use transform="translate(41.983234 0)scale(0.697382)" xlink:href="#CMMI12-116"/>
     <use transform="translate(66.641543 0)scale(0.697382)" xlink:href="#CMMI12-59"/>
     <use transform="translate(85.609476 0)scale(0.697382)" xlink:href="#CMR17-49"/>
    </g>
   </g>
   <g id="text_6">
    <!-- $\tilde{c}_{t,1}$ -->
    <g transform="translate(274.011429 215.76)scale(0.14 -0.14)">
     <use transform="translate(3.565821 14.950375)scale(0.996264)" xlink:href="#CMR17-126"/>
     <use transform="translate(0 14.943915)scale(0.996264)" xlink:href="#CMMI12-99"/>
     <use transform="translate(41.983234 0)scale(0.697382)" xlink:href="#CMMI12-116"/>
     <use transform="translate(66.641543 0)scale(0.697382)" xlink:href="#CMMI12-59"/>
     <use transform="translate(85.609476 0)scale(0.697382)" xlink:href="#CMR17-49"/>
    </g>
   </g>
   <g id="text_7">
    <!-- ${w}_{t,1}$ -->
    <g transform="translate(187.92 266.496)scale(0.14 -0.14)">
     <use transform="translate(0 14.943915)scale(0.996264)" xlink:href="#CMMI12-119"/>
     <use transform="translate(69.73199 0)scale(0.697382)" xlink:href="#CMMI12-116"/>
     <use transform="translate(94.390299 0)scale(0.697382)" xlink:href="#CMMI12-59"/>
     <use transform="translate(113.358232 0)scale(0.697382)" xlink:href="#CMR17-49"/>
    </g>
   </g>
   <g id="text_8">
    <!-- $\bar{w}_{t,1}$ -->
    <defs>
     <path d="M 39.90625 55 
L 39.90625 57.296875 
L 5.90625 57.296875 
L 5.90625 55 
z
" id="CMR17-22"/>
    </defs>
    <g transform="translate(250.097143 266.496)scale(0.14 -0.14)">
     <use transform="translate(21.49038 14.950375)scale(0.996264)" xlink:href="#CMR17-22"/>
     <use transform="translate(0 14.943915)scale(0.996264)" xlink:href="#CMMI12-119"/>
     <use transform="translate(69.73199 0)scale(0.697382)" xlink:href="#CMMI12-116"/>
     <use transform="translate(94.390299 0)scale(0.697382)" xlink:href="#CMMI12-59"/>
     <use transform="translate(113.358232 0)scale(0.697382)" xlink:href="#CMR17-49"/>
    </g>
   </g>
  </g>
 </g>
 <defs>
  <clipPath id="p04b136e172">
   <rect height="217.44" width="334.8" x="54" y="34.56"/>
  </clipPath>
 </defs>
</svg>
